<?xml version="1.0" encoding="UTF-8"?>
<svg id="Layer_2" data-name="Layer 2" xmlns="http://www.w3.org/2000/svg" xmlns:xlink="http://www.w3.org/1999/xlink" viewBox="0 0 336.25 284.94">
  <defs>
    <style>
      .cls-1 {
        fill: #061e3e;
      }

      .cls-2 {
        fill: #fff;
      }

      .cls-3 {
        clip-path: url(#clippath);
      }
    </style>
    <clipPath id="clippath">
      <path class="cls-1" d="M153.75,16.68c-56.78,5.22-95.54,42.67-114.15,73.29-7.83,12.88-23.62,37.99-20.32,71.1.5,5.01,2.85,24.44,16.09,44.68,11.49,17.58,25.28,26.74,36,33.7,24.13,15.67,46.41,20.54,60.51,23.49,18.22,3.81,50.04,10.08,88.09-.77,22.63-6.45,39.33-16.64,49.02-23.49,9.86-6.97,21.89-15.48,32.17-30.64,3.73-5.5,17.62-27.8,17.62-58.47,0-46.83-34.5-78.42-47.49-90.38-8.96-8.25-52.64-48.48-117.52-42.52Z"/>
    </clipPath>
  </defs>
  <g id="Layer_1-2" data-name="Layer 1">
    <path class="cls-2" d="M335.11,166.98c-10.81,72.76-95.71,117.96-166.98,117.96S11.96,239.74,1.15,166.98C-11.07,84.77,76.15,0,168.13,0s179.2,84.77,166.98,166.98Z"/>
    <g>
      <path class="cls-1" d="M153.75,16.68c-56.78,5.22-95.54,42.67-114.15,73.29-7.83,12.88-23.62,37.99-20.32,71.1.5,5.01,2.85,24.44,16.09,44.68,11.49,17.58,25.28,26.74,36,33.7,24.13,15.67,46.41,20.54,60.51,23.49,18.22,3.81,50.04,10.08,88.09-.77,22.63-6.45,39.33-16.64,49.02-23.49,9.86-6.97,21.89-15.48,32.17-30.64,3.73-5.5,17.62-27.8,17.62-58.47,0-46.83-34.5-78.42-47.49-90.38-8.96-8.25-52.64-48.48-117.52-42.52Z"/>
      <g class="cls-3">
        <image width="1024" height="1024" transform="translate(-63.06 -45.32) scale(.87 .89)" xlink:href="../../../Downloads/WhatsApp Image 2026-01-11 at 18.29.19.jpeg"/>
      </g>
    </g>
  </g>
</svg>